<svg xmlns="http://www.w3.org/2000/svg" viewBox="0 0 256 256" width="256" height="256">
  <title>ORME — Open Regulator Modbus Emulator</title>
  <g>
    <circle cx="128" cy="110" r="74" fill="#1A171B"/>
    <path d="M 62.95 175.05 A 92 92 0 1 1 193.05 175.05" fill="none" stroke="#F29400" stroke-width="17" stroke-linecap="round"/>
    <line x1="92.64" y1="145.36" x2="82.75" y2="155.25" stroke="#F29400" stroke-width="5" stroke-linecap="round"/>
    <line x1="80.45" y1="125.45" x2="67.13" y2="129.78" stroke="#4A464C" stroke-width="3" stroke-linecap="round"/>
    <line x1="78.62" y1="102.18" x2="64.79" y2="99.99" stroke="#4A464C" stroke-width="3" stroke-linecap="round"/>
    <line x1="87.55" y1="80.61" x2="76.22" y2="72.38" stroke="#4A464C" stroke-width="3" stroke-linecap="round"/>
    <line x1="105.3" y1="65.45" x2="98.94" y2="52.98" stroke="#4A464C" stroke-width="3" stroke-linecap="round"/>
    <line x1="128" y1="60" x2="128" y2="46" stroke="#F29400" stroke-width="5" stroke-linecap="round"/>
    <line x1="150.7" y1="65.45" x2="157.06" y2="52.98" stroke="#4A464C" stroke-width="3" stroke-linecap="round"/>
    <line x1="168.45" y1="80.61" x2="179.78" y2="72.38" stroke="#4A464C" stroke-width="3" stroke-linecap="round"/>
    <line x1="177.38" y1="102.18" x2="191.21" y2="99.99" stroke="#4A464C" stroke-width="3" stroke-linecap="round"/>
    <line x1="175.55" y1="125.45" x2="188.87" y2="129.78" stroke="#4A464C" stroke-width="3" stroke-linecap="round"/>
    <line x1="163.36" y1="145.36" x2="173.25" y2="155.25" stroke="#F29400" stroke-width="5" stroke-linecap="round"/>
    <polygon points="168.15,65.41 119.83,102.64 114.62,124.86 136.17,117.36" fill="#F29400"/>
    <circle cx="128" cy="110" r="15" fill="#F29400"/>
    <circle cx="128" cy="110" r="6" fill="#1A171B"/>
    <line x1="128" y1="184" x2="128" y2="222" stroke="#F29400" stroke-width="6" stroke-linecap="round"/>
    <line x1="94" y1="222" x2="162" y2="222" stroke="#F29400" stroke-width="6" stroke-linecap="round"/>
    <circle cx="94" cy="222" r="8" fill="#F29400"/>
    <circle cx="94" cy="222" r="3.5" fill="#1A171B"/>
    <circle cx="128" cy="222" r="8" fill="#F29400"/>
    <circle cx="128" cy="222" r="3.5" fill="#1A171B"/>
    <circle cx="162" cy="222" r="8" fill="#F29400"/>
    <circle cx="162" cy="222" r="3.5" fill="#1A171B"/>
  </g>
</svg>
