<svg xmlns="http://www.w3.org/2000/svg" viewBox="0 0 760 240" width="760" height="240">
  <title>ORME — Open Regulator Modbus Emulator</title>
  <style>
    .ink { fill: #1A171B; }
    .sub { fill: #6E6A70; }
    @media (prefers-color-scheme: dark) {
      .ink { fill: #ECECEC; }
      .sub { fill: #B7B3B9; }
    }
  </style>
  <g transform="translate(20,0)">
    <g>
    <circle cx="110" cy="110" r="74" fill="#1A171B"/>
    <path d="M 44.95 175.05 A 92 92 0 1 1 175.05 175.05" fill="none" stroke="#F29400" stroke-width="17" stroke-linecap="round"/>
    <line x1="74.64" y1="145.36" x2="64.75" y2="155.25" stroke="#F29400" stroke-width="5" stroke-linecap="round"/>
    <line x1="62.45" y1="125.45" x2="49.13" y2="129.78" stroke="#4A464C" stroke-width="3" stroke-linecap="round"/>
    <line x1="60.62" y1="102.18" x2="46.79" y2="99.99" stroke="#4A464C" stroke-width="3" stroke-linecap="round"/>
    <line x1="69.55" y1="80.61" x2="58.22" y2="72.38" stroke="#4A464C" stroke-width="3" stroke-linecap="round"/>
    <line x1="87.3" y1="65.45" x2="80.94" y2="52.98" stroke="#4A464C" stroke-width="3" stroke-linecap="round"/>
    <line x1="110" y1="60" x2="110" y2="46" stroke="#F29400" stroke-width="5" stroke-linecap="round"/>
    <line x1="132.7" y1="65.45" x2="139.06" y2="52.98" stroke="#4A464C" stroke-width="3" stroke-linecap="round"/>
    <line x1="150.45" y1="80.61" x2="161.78" y2="72.38" stroke="#4A464C" stroke-width="3" stroke-linecap="round"/>
    <line x1="159.38" y1="102.18" x2="173.21" y2="99.99" stroke="#4A464C" stroke-width="3" stroke-linecap="round"/>
    <line x1="157.55" y1="125.45" x2="170.87" y2="129.78" stroke="#4A464C" stroke-width="3" stroke-linecap="round"/>
    <line x1="145.36" y1="145.36" x2="155.25" y2="155.25" stroke="#F29400" stroke-width="5" stroke-linecap="round"/>
    <polygon points="150.15,65.41 101.83,102.64 96.62,124.86 118.17,117.36" fill="#F29400"/>
    <circle cx="110" cy="110" r="15" fill="#F29400"/>
    <circle cx="110" cy="110" r="6" fill="#1A171B"/>
    <line x1="110" y1="184" x2="110" y2="222" stroke="#F29400" stroke-width="6" stroke-linecap="round"/>
    <line x1="76" y1="222" x2="144" y2="222" stroke="#F29400" stroke-width="6" stroke-linecap="round"/>
    <circle cx="76" cy="222" r="8" fill="#F29400"/>
    <circle cx="76" cy="222" r="3.5" fill="#1A171B"/>
    <circle cx="110" cy="222" r="8" fill="#F29400"/>
    <circle cx="110" cy="222" r="3.5" fill="#1A171B"/>
    <circle cx="144" cy="222" r="8" fill="#F29400"/>
    <circle cx="144" cy="222" r="3.5" fill="#1A171B"/>
  </g>
  </g>
  <text x="250" y="118" font-family="'DejaVu Sans','Segoe UI',Helvetica,Arial,sans-serif" font-size="104" font-weight="800"
        class="ink" letter-spacing="2">OR<tspan fill="#F29400">ME</tspan></text>
  <text x="252" y="158" font-family="'DejaVu Sans','Segoe UI',Helvetica,Arial,sans-serif" font-size="27" font-weight="600"
        class="sub" letter-spacing="0.5"
        textLength="470" lengthAdjust="spacingAndGlyphs">Open Regulator Modbus Emulator</text>
  <text x="252" y="192" font-family="'DejaVu Sans','Segoe UI',Helvetica,Arial,sans-serif" font-size="23" font-weight="700"
        fill="#F29400" font-style="italic">« Ouvrez le bus. »</text>
</svg>
