<svg xmlns="http://www.w3.org/2000/svg" viewBox="0 0 760 240" width="760" height="240">
  <title>OSNE — Open Stirrer NAMUR Emulator</title>
  <style>
    .ink { fill: #1A171B; }
    .sub { fill: #6E6A70; }
    @media (prefers-color-scheme: dark) {
      .ink { fill: #ECECEC; }
      .sub { fill: #B7B3B9; }
    }
  </style>
  <g transform="translate(8,8)">
    <g>
    <circle cx="112" cy="112" r="74" fill="#1A171B"/>
    <path d="M 46.95 177.05 A 92 92 0 1 1 177.05 177.05" fill="none" stroke="#F29400" stroke-width="17" stroke-linecap="round"/>
    <polygon points="177.05,177.05 206.45,160.12 181.5,147.41" fill="#F29400"/>
    <polygon points="46.95,46.95 17.55,63.88 42.5,76.59" fill="#F29400"/>
    <line x1="112" y1="62" x2="112" y2="112" stroke="#F29400" stroke-width="8" stroke-linecap="round"/>
    <rect x="92" y="46" width="40" height="20" rx="6" fill="#F29400"/>
    <g transform="translate(128.38,123.47) rotate(35)"><ellipse cx="0" cy="0" rx="20" ry="7.5" fill="#F29400"/></g>
    <g transform="translate(100.53,128.38) rotate(125)"><ellipse cx="0" cy="0" rx="20" ry="7.5" fill="#F29400"/></g>
    <g transform="translate(95.62,100.53) rotate(215)"><ellipse cx="0" cy="0" rx="20" ry="7.5" fill="#F29400"/></g>
    <g transform="translate(123.47,95.62) rotate(305)"><ellipse cx="0" cy="0" rx="20" ry="7.5" fill="#F29400"/></g>
    <circle cx="112" cy="112" r="13" fill="#F29400"/>
    <circle cx="112" cy="112" r="5.5" fill="#1A171B"/>
  </g>
  </g>
  <text x="250" y="118" font-family="'DejaVu Sans','Segoe UI',Helvetica,Arial,sans-serif" font-size="104" font-weight="800"
        class="ink" letter-spacing="2">OS<tspan fill="#F29400">NE</tspan></text>
  <text x="252" y="158" font-family="'DejaVu Sans','Segoe UI',Helvetica,Arial,sans-serif" font-size="27" font-weight="600"
        class="sub" letter-spacing="0.5"
        textLength="470" lengthAdjust="spacingAndGlyphs">Open Stirrer NAMUR Emulator</text>
  <text x="252" y="192" font-family="'DejaVu Sans','Segoe UI',Helvetica,Arial,sans-serif" font-size="23" font-weight="700"
        fill="#F29400" font-style="italic">« Agitez le procédé. »</text>
</svg>
