<svg xmlns="http://www.w3.org/2000/svg" viewBox="0 0 760 240" width="760" height="240">
  <title>ORUE — Open Regulator UA Emulator</title>
  <style>
    .ink { fill: #1A171B; }
    .sub { fill: #6E6A70; }
    @media (prefers-color-scheme: dark) {
      .ink { fill: #ECECEC; }
      .sub { fill: #B7B3B9; }
    }
  </style>
  <g transform="translate(2,0)">
    <g>
    <circle cx="120" cy="120" r="62" fill="#1A171B"/>
    <path d="M 64.85 175.15 A 78 78 0 1 1 175.15 175.15" fill="none" stroke="#F29400" stroke-width="13" stroke-linecap="round"/>
    <line x1="90.3" y1="149.7" x2="81.82" y2="158.18" stroke="#F29400" stroke-width="5" stroke-linecap="round"/>
    <line x1="80.06" y1="132.98" x2="68.64" y2="136.69" stroke="#4A464C" stroke-width="3" stroke-linecap="round"/>
    <line x1="78.52" y1="113.43" x2="66.66" y2="111.55" stroke="#4A464C" stroke-width="3" stroke-linecap="round"/>
    <line x1="86.02" y1="95.31" x2="76.31" y2="88.26" stroke="#4A464C" stroke-width="3" stroke-linecap="round"/>
    <line x1="100.93" y1="82.58" x2="95.48" y2="71.89" stroke="#4A464C" stroke-width="3" stroke-linecap="round"/>
    <line x1="120" y1="78" x2="120" y2="66" stroke="#F29400" stroke-width="5" stroke-linecap="round"/>
    <line x1="139.07" y1="82.58" x2="144.52" y2="71.89" stroke="#4A464C" stroke-width="3" stroke-linecap="round"/>
    <line x1="153.98" y1="95.31" x2="163.69" y2="88.26" stroke="#4A464C" stroke-width="3" stroke-linecap="round"/>
    <line x1="161.48" y1="113.43" x2="173.34" y2="111.55" stroke="#4A464C" stroke-width="3" stroke-linecap="round"/>
    <line x1="159.94" y1="132.98" x2="171.36" y2="136.69" stroke="#4A464C" stroke-width="3" stroke-linecap="round"/>
    <line x1="149.7" y1="149.7" x2="158.18" y2="158.18" stroke="#F29400" stroke-width="5" stroke-linecap="round"/>
    <polygon points="153.46,82.84 112.57,113.31 107.96,133.38 127.43,126.69" fill="#F29400"/>
    <circle cx="120" cy="120" r="13" fill="#F29400"/>
    <circle cx="120" cy="120" r="5" fill="#1A171B"/>
    <line x1="49.29" y1="190.71" x2="21.23" y2="135.64" stroke="#F29400" stroke-width="3.5" stroke-linecap="round"/>
    <line x1="21.23" y1="135.64" x2="30.9" y2="74.6" stroke="#F29400" stroke-width="3.5" stroke-linecap="round"/>
    <line x1="30.9" y1="74.6" x2="74.6" y2="30.9" stroke="#F29400" stroke-width="3.5" stroke-linecap="round"/>
    <line x1="74.6" y1="30.9" x2="135.64" y2="21.23" stroke="#F29400" stroke-width="3.5" stroke-linecap="round"/>
    <line x1="135.64" y1="21.23" x2="190.71" y2="49.29" stroke="#F29400" stroke-width="3.5" stroke-linecap="round"/>
    <line x1="190.71" y1="49.29" x2="218.77" y2="104.36" stroke="#F29400" stroke-width="3.5" stroke-linecap="round"/>
    <line x1="218.77" y1="104.36" x2="209.1" y2="165.4" stroke="#F29400" stroke-width="3.5" stroke-linecap="round"/>
    <circle cx="49.29" cy="190.71" r="7" fill="#F29400"/>
    <circle cx="49.29" cy="190.71" r="2.8" fill="#1A171B"/>
    <circle cx="21.23" cy="135.64" r="7" fill="#F29400"/>
    <circle cx="21.23" cy="135.64" r="2.8" fill="#1A171B"/>
    <circle cx="30.9" cy="74.6" r="7" fill="#F29400"/>
    <circle cx="30.9" cy="74.6" r="2.8" fill="#1A171B"/>
    <circle cx="74.6" cy="30.9" r="7" fill="#F29400"/>
    <circle cx="74.6" cy="30.9" r="2.8" fill="#1A171B"/>
    <circle cx="135.64" cy="21.23" r="7" fill="#F29400"/>
    <circle cx="135.64" cy="21.23" r="2.8" fill="#1A171B"/>
    <circle cx="190.71" cy="49.29" r="7" fill="#F29400"/>
    <circle cx="190.71" cy="49.29" r="2.8" fill="#1A171B"/>
    <circle cx="218.77" cy="104.36" r="7" fill="#F29400"/>
    <circle cx="218.77" cy="104.36" r="2.8" fill="#1A171B"/>
    <circle cx="209.1" cy="165.4" r="7" fill="#F29400"/>
    <circle cx="209.1" cy="165.4" r="2.8" fill="#1A171B"/>
  </g>
  </g>
  <text x="250" y="118" font-family="'DejaVu Sans','Segoe UI',Helvetica,Arial,sans-serif" font-size="104" font-weight="800"
        class="ink" letter-spacing="2">OR<tspan fill="#F29400">UE</tspan></text>
  <text x="252" y="158" font-family="'DejaVu Sans','Segoe UI',Helvetica,Arial,sans-serif" font-size="27" font-weight="600"
        class="sub" letter-spacing="0.5"
        textLength="410" lengthAdjust="spacingAndGlyphs">Open Regulator UA Emulator</text>
  <text x="252" y="192" font-family="'DejaVu Sans','Segoe UI',Helvetica,Arial,sans-serif" font-size="23" font-weight="700"
        fill="#F29400" font-style="italic">« Unifiez le procédé. »</text>
</svg>
